<?xml version="1.0" encoding="UTF-8" standalone="no"?>
<svg width="1080px" height="760px" viewBox="0 0 1080 760" version="1.1" xmlns="http://www.w3.org/2000/svg" xmlns:xlink="http://www.w3.org/1999/xlink" xmlns:sketch="http://www.bohemiancoding.com/sketch/ns">
    <!-- Generator: Sketch 3.2.2 (9983) - http://www.bohemiancoding.com/sketch -->
    <title>Dropbox</title>
    <desc>Created with Sketch.</desc>
    <defs></defs>
    <g id="Page-1" stroke="none" stroke-width="1" fill="none" fill-rule="evenodd" sketch:type="MSPage">
        <path d="M607.72039,298.510818 L660,332.453406 L611.590669,371 L585.238455,354.820115 C588.331904,350.634788 591.167909,346.528566 593.712673,342.521029 C602.863758,328.109746 608,315.491256 608,304.54098 C608,302.507798 607.905436,300.496426 607.72039,298.510818 L607.72039,298.510818 Z M474.279545,298.51151 L422,332.453406 L470.407978,371 L496.76128,354.819757 C493.667935,350.634554 490.832018,346.528451 488.287327,342.521029 C479.136242,328.109746 474,315.491256 474,304.54098 C474,302.508035 474.094542,300.496894 474.279545,298.51151 L474.279545,298.51151 Z M540.5,391 C540.5,391 598,335.445374 598,304.333333 C598,273.221292 572.256373,248 540.5,248 C508.743627,248 483,273.221292 483,304.333333 C483,335.445374 540.5,391 540.5,391 Z M540,322 C552.150264,322 562,312.374122 562,300.5 C562,288.625878 552.150264,279 540,279 C527.849736,279 518,288.625878 518,300.5 C518,312.374122 527.849736,322 540,322 Z M541,425 L491.977695,465.769817 L471,452.042253 L471,477.929965 L541,520 L611,477.929965 L611,452.042253 L590.022305,465.769817 L541,425 Z M422,409.547821 L492.010332,455 L541,414.340498 L470.410259,371 L422,409.547821 Z M541,414.340498 L589.99101,455 L660,409.547821 L611.590669,371 L541,414.340498 Z" id="Fill-4" stroke-opacity="0.04" stroke="#000000" fill="#F0F3F5" sketch:type="MSShapeGroup"></path>
    </g>
</svg>